<svg xmlns="http://www.w3.org/2000/svg" height="48" viewBox="0 96 960 960" width="48"><path d="M479.853 682Q524.5 682 556 651.397q31.5-30.603 31.5-75.25T556.294 500q-31.206-31.5-76-31.5t-75.544 31.206q-30.75 31.206-30.75 76t30.603 75.544Q435.206 682 479.853 682Zm.234 92.5q-82.587 0-140.587-58.06-58-58.06-58-140.5t58.06-140.69Q397.62 377 480.06 377t140.69 58.163Q679 493.327 679 575.913q0 82.587-58.163 140.587-58.164 58-140.75 58ZM70 621.5q-19.25 0-32.375-13.175-13.125-13.176-13.125-32.5 0-19.325 13.125-32.575Q50.75 530 70 530h100q19.25 0 32.625 13.425Q216 556.851 216 576.175q0 19.325-13.375 32.325-13.375 13-32.625 13H70Zm720 0q-19.25 0-32.375-13.175-13.125-13.176-13.125-32.5 0-19.325 13.125-32.575Q770.75 530 790 530h100q19.25 0 32.625 13.425Q936 556.851 936 576.175q0 19.325-13.375 32.325-13.375 13-32.625 13H790Zm-310.175-310q-19.325 0-32.325-13.125-13-13.125-13-32.375V166q0-19.25 13.175-32.625Q460.851 120 480.175 120q19.325 0 32.575 13.375Q526 146.75 526 166v100q0 19.25-13.425 32.375-13.426 13.125-32.75 13.125Zm0 720q-19.325 0-32.325-13.12-13-13.13-13-32.38V886q0-19.25 13.175-32.625Q460.851 840 480.175 840q19.325 0 32.575 13.375Q526 866.75 526 886v100q0 19.25-13.425 32.38-13.426 13.12-32.75 13.12ZM229 390l-57-56q-14-13.5-13.629-32.603.37-19.104 13.765-33.5 13.157-13.397 31.761-13.647Q222.5 254 237 267.5l57 57q13 13.853 13 32.324 0 18.47-13 31.823Q280 402 261.25 403T229 390Zm494 494-57-57q-13-13.5-13-31.875t13.5-32.625q13-13.5 31.983-13.25 18.984.25 33.017 13.75l57 55q13.5 13.5 13.129 32.603-.37 19.104-13.765 33.5-13.157 13.397-31.761 13.647Q737.5 898 723 884Zm-56.147-494Q653 376.5 653.25 357.517q.25-18.984 13.75-33.017l55-57q13.5-13.5 32.603-13.129 19.104.37 33.5 13.765 13.397 13.157 13.647 31.761Q802 318.5 788.5 333l-57 57q-12.853 13-31.687 13-18.834 0-32.96-13ZM171.897 884.121q-13.397-13.423-13.647-32.022Q158 833.5 172 819l57-57q13.3-13.5 31.4-13.75 18.1-.25 32.709 13.75Q307 775.5 306.75 794.5T293 827l-55 57q-13.5 14-32.603 13.629-19.104-.37-33.5-13.508ZM480 576Z"/></svg>